<?xml version="1.0" standalone="no"?>
<!DOCTYPE svg PUBLIC "-//W3C//DTD SVG 20010904//EN"
 "http://www.w3.org/TR/2001/REC-SVG-20010904/DTD/svg10.dtd">
<svg version="1.0" xmlns="http://www.w3.org/2000/svg"
 width="1079.000000pt" height="686.000000pt" viewBox="0 0 1079.000000 686.000000"
 preserveAspectRatio="xMidYMid meet">

<g transform="translate(0.000000,686.000000) scale(0.100000,-0.100000)"
fill="#e53935" stroke="none">
<path d="M510 6840 c-232 -49 -390 -159 -473 -330 l-32 -65 -3 -2934 c-2
-3260 -8 -2980 65 -3131 29 -58 57 -95 127 -166 98 -97 170 -142 301 -186 l70
-23 4810 -3 c5360 -3 4875 -9 5031 67 181 89 314 252 364 448 20 75 20 128 20
2983 0 3260 8 2937 -77 3103 -65 125 -141 181 -310 230 l-78 22 -4865 2
c-4672 2 -4868 1 -4950 -17z m1352 -2517 c667 -474 1263 -898 1323 -942 218
-158 1607 -1148 1732 -1234 180 -125 274 -169 420 -197 127 -25 288 27 477
154 147 99 1689 1177 1696 1186 5 6 187 133 1785 1250 396 276 751 525 789
551 39 27 76 49 83 49 15 0 16 -720 4 -2930 l-6 -1205 -23 -65 c-62 -175 -201
-307 -388 -371 l-69 -24 -4280 0 -4280 0 -75 23 c-82 26 -182 81 -246 136 -59
50 -130 159 -162 246 l-27 75 -3 2083 c-2 2080 -2 2083 18 2080 11 -2 565
-391 1232 -865z"/>
<path d="M3550 2607 c-32 -11 -106 -51 -525 -282 -71 -40 -200 -110 -285 -157
-85 -47 -326 -180 -535 -295 -209 -116 -537 -297 -730 -403 -192 -106 -364
-204 -382 -217 -98 -75 -91 -220 13 -300 42 -31 118 -42 166 -22 32 12 483
259 1638 897 294 162 589 325 655 361 178 98 225 147 225 234 0 123 -129 222
-240 184z"/>
<path d="M7128 2590 c-44 -24 -76 -66 -93 -125 -19 -62 -3 -118 49 -169 28
-26 251 -155 701 -403 363 -201 905 -500 1203 -665 299 -166 561 -306 582
-311 56 -15 116 5 166 58 79 82 79 182 -1 259 -27 26 -277 170 -755 433 -393
217 -938 518 -1211 669 -479 264 -499 274 -550 274 -33 -1 -68 -8 -91 -20z"/>
</g>
</svg>
